<svg width="24" height="24" viewBox="0 0 24 24" fill="none" xmlns="http://www.w3.org/2000/svg">
<path d="M14.5983 6.3165C15.3623 6.91849 15.8641 7.83119 15.8641 8.99344C15.8641 10.0244 15.6253 10.7908 15.1811 11.3795C14.7553 11.9439 14.1975 12.2594 13.7954 12.4867C13.3505 12.7381 13.0925 12.8864 12.9041 13.1125C12.7498 13.2975 12.5893 13.6067 12.5893 14.2695C12.5893 14.7385 12.2091 15.1187 11.7401 15.1187C11.2712 15.1187 10.891 14.7385 10.891 14.2695C10.891 13.297 11.1398 12.5765 11.5996 12.025C11.9964 11.5491 12.5107 11.2603 12.8814 11.0522L12.9597 11.0082C13.3763 10.7727 13.6371 10.6062 13.8254 10.3567C13.9952 10.1316 14.1658 9.75234 14.1658 8.99345C14.1658 8.36581 13.9138 7.93934 13.5472 7.65042C13.1581 7.34379 12.6001 7.16618 12.0018 7.16746C11.4037 7.16874 10.8442 7.34876 10.4535 7.65722C10.0847 7.94832 9.83431 8.37418 9.83431 8.99344C9.83431 9.46242 9.45413 9.84259 8.98515 9.84259C8.51618 9.84259 8.136 9.46242 8.136 8.99344C8.136 7.83574 8.63931 6.92564 9.40114 6.32422C10.141 5.74016 11.089 5.4711 11.9982 5.46916C12.9074 5.46721 13.8569 5.73223 14.5983 6.3165Z" fill="white"/>
<path d="M11.7583 18.7035C12.4126 18.7035 12.943 18.173 12.943 17.5187C12.943 16.8644 12.4126 16.3339 11.7583 16.3339C11.1039 16.3339 10.5735 16.8644 10.5735 17.5187C10.5735 18.173 11.1039 18.7035 11.7583 18.7035Z" fill="white"/>
<path fill-rule="evenodd" clip-rule="evenodd" d="M0 12C0 5.37258 5.37258 0 12 0C18.6274 0 24 5.37258 24 12C24 18.6274 18.6274 24 12 24C5.37258 24 0 18.6274 0 12ZM12 1.62712C6.27122 1.62712 1.62712 6.27122 1.62712 12C1.62712 17.7288 6.27122 22.3729 12 22.3729C17.7288 22.3729 22.3729 17.7288 22.3729 12C22.3729 6.27122 17.7288 1.62712 12 1.62712Z" fill="white"/>
</svg>
