<svg width="24" height="26" viewBox="0 0 24 26" fill="none" xmlns="http://www.w3.org/2000/svg">
<path fill-rule="evenodd" clip-rule="evenodd" d="M18.3483 5.01429C18.3483 7.7836 16.103 10.0286 13.3333 10.0286C10.5636 10.0286 8.31834 7.7836 8.31834 5.01429C8.31834 2.24497 10.5636 0 13.3333 0C16.103 0 18.3483 2.24497 18.3483 5.01429ZM16.6766 5.01429C16.6766 6.86049 15.1798 8.35714 13.3333 8.35714C11.4868 8.35714 9.99 6.86049 9.99 5.01429C9.99 3.16808 11.4868 1.67143 13.3333 1.67143C15.1798 1.67143 16.6766 3.16808 16.6766 5.01429Z" fill="white"/>
<path d="M23.7446 18.4856C22.242 15.2571 19.1802 11.1429 13.3333 11.1429C10.4522 11.1429 8.26106 12.2128 6.59199 13.6446C6.03272 14.1244 6.40726 14.9756 7.14413 14.9756C7.35204 14.9756 7.55183 14.899 7.71296 14.7676C9.13506 13.6078 10.9696 12.8143 13.3333 12.8143C18.2076 12.8143 20.8318 16.1887 22.229 19.1908C22.3975 19.5529 22.3372 19.8508 22.1535 20.0969C21.9482 20.3717 21.5485 20.6143 21.0101 20.6143H13.1024C12.6408 20.6143 12.2666 20.9884 12.2666 21.45C12.2666 21.9116 12.6408 22.2857 13.1024 22.2857H21.0101C23.1023 22.2857 24.6273 20.3822 23.7446 18.4856Z" fill="white"/>
<path d="M4.80001 16.449C5.09456 16.449 5.33335 16.6865 5.33335 16.9796V20.6939H9.06669C9.36124 20.6939 9.60002 20.9314 9.60002 21.2245C9.60002 21.5175 9.36124 21.7551 9.06669 21.7551H5.33335V25.4694C5.33335 25.7624 5.09456 26 4.80001 26C4.50546 26 4.26668 25.7624 4.26668 25.4694V21.7551H0.533335C0.238782 21.7551 0 21.5175 0 21.2245C0 20.9314 0.238782 20.6939 0.533335 20.6939H4.26668V16.9796C4.26668 16.6865 4.50546 16.449 4.80001 16.449Z" fill="white"/>
</svg>
