<svg width="24" height="24" viewBox="0 0 24 24" fill="none" xmlns="http://www.w3.org/2000/svg">
<path d="M16.0678 9.45763C16.0678 11.985 14.2466 14.0339 12 14.0339C9.75342 14.0339 7.9322 11.985 7.9322 9.45763C7.9322 6.93022 9.75342 4.88136 12 4.88136C14.2466 4.88136 16.0678 6.93022 16.0678 9.45763Z" fill="white"/>
<path fill-rule="evenodd" clip-rule="evenodd" d="M0 12C0 5.37258 5.37258 0 12 0C18.6274 0 24 5.37258 24 12C24 18.6274 18.6274 24 12 24C5.37258 24 0 18.6274 0 12ZM12 1.62712C6.27122 1.62712 1.62712 6.27122 1.62712 12C1.62712 14.6536 2.62352 17.0744 4.26258 18.9088C5.88497 17.2013 8.74393 16.0678 12 16.0678C15.2561 16.0678 18.115 17.2013 19.7374 18.9088C21.3765 17.0744 22.3729 14.6535 22.3729 12C22.3729 6.27122 17.7288 1.62712 12 1.62712Z" fill="white"/>
</svg>
